<svg width="72" height="45" viewBox="0 0 72 45" fill="none" xmlns="http://www.w3.org/2000/svg">
<path d="M4.19026 38.3114L9.17537 17.455H13.9886L18.9737 38.3114L11.4674 44.2703L4.19026 38.3114Z" fill="#FF6600"/>
<path d="M13.9886 16.186H9.17537L7.39907 13.5376C6.90362 12.5905 8.02011 11.721 8.77824 11.6616H14.4414C15.1382 11.6616 15.9921 12.8362 15.593 13.5376L13.9886 16.186Z" fill="#FF6600"/>
<path d="M0 32.0474V27.2794L7.88586 18.7324L4.84155 30.8819L0 32.0474Z" fill="#FF6600"/>
<path d="M7.39898 13.5371C6.90353 12.59 8.02003 11.7206 8.77815 11.6611H11.6097L11.5819 16.1855H9.17528L7.39898 13.5371Z" fill="url(#paint0_linear_1_100)"/>
<path d="M11.4564 17.455H13.9866L16.2559 26.9241L11.4564 31.6712V17.455Z" fill="url(#paint1_linear_1_100)"/>
<path fill-rule="evenodd" clip-rule="evenodd" d="M5.78609 31.5271L5.39718 33.1542C8.65814 29.9814 15.219 23.5809 15.375 23.3616L15.1801 22.5462L5.78609 31.5271ZM13.963 17.4543L14.2278 18.562L7.31288 25.1394L7.62381 23.8385L13.963 17.4543ZM16.2852 27.1697L4.43628 38.5331L5.14816 39.116L16.5363 28.2205L16.2852 27.1697ZM8.36579 41.7508L7.67101 41.1608L17.4107 31.8786L17.6813 33.0108L8.36579 41.7508Z" fill="white"/>
<rect x="27.1414" width="37.4396" height="16.9082" rx="3.62319" fill="#FF6600"/>
<path d="M30.0722 7.91546H31.4007L32.7051 10.814L34.0094 7.91546H35.3379L32.7051 13.3623L30.0722 7.91546ZM44.0534 11.8647V13H38.6428L41.4326 9.61836C41.8513 9.11111 42.1734 8.69243 42.3988 8.36232C42.6806 7.94364 42.8215 7.55717 42.8215 7.2029C42.8215 6.84058 42.7048 6.53462 42.4713 6.28502C42.2378 6.02737 41.9077 5.89855 41.4809 5.89855C41.0542 5.89855 40.716 6.03945 40.4664 6.32126C40.2168 6.60306 40.08 6.94927 40.0558 7.3599H38.8722C38.9044 6.65137 39.1299 6.06361 39.5486 5.59662C40.0155 5.07327 40.6436 4.81159 41.4326 4.81159C42.2458 4.81159 42.8819 5.04911 43.3408 5.52415C43.7998 5.99919 44.0292 6.57085 44.0292 7.23913C44.0292 7.79469 43.836 8.35829 43.4495 8.92995C43.2402 9.24396 42.8577 9.72705 42.3022 10.3792L41.0461 11.8647H44.0534ZM46.0988 12.9396C45.9619 12.7947 45.8935 12.6216 45.8935 12.4203C45.8935 12.219 45.9619 12.0499 46.0988 11.913C46.2437 11.7681 46.4168 11.6957 46.6181 11.6957C46.8194 11.6957 46.9885 11.7681 47.1254 11.913C47.2703 12.0499 47.3428 12.219 47.3428 12.4203C47.3428 12.6216 47.2703 12.7947 47.1254 12.9396C46.9885 13.0765 46.8194 13.1449 46.6181 13.1449C46.4168 13.1449 46.2437 13.0765 46.0988 12.9396ZM53.3929 12.2633C52.8857 12.843 52.2778 13.1329 51.5692 13.1329C50.8607 13.1329 50.2528 12.843 49.7456 12.2633C49.0612 11.4823 48.719 10.3873 48.719 8.97826C48.719 7.56119 49.0612 6.46216 49.7456 5.68116C50.2528 5.10145 50.8607 4.81159 51.5692 4.81159C52.2778 4.81159 52.8857 5.10145 53.3929 5.68116C54.0773 6.46216 54.4195 7.56119 54.4195 8.97826C54.4195 10.3873 54.0773 11.4823 53.3929 12.2633ZM52.6562 6.5628C52.3663 6.11997 52.004 5.89855 51.5692 5.89855C51.1345 5.89855 50.7721 6.11997 50.4823 6.5628C50.1119 7.11031 49.9267 7.91143 49.9267 8.96618C49.9267 10.0129 50.1119 10.818 50.4823 11.3816C50.7721 11.8245 51.1345 12.0459 51.5692 12.0459C52.004 12.0459 52.3663 11.8245 52.6562 11.3816C53.0266 10.818 53.2118 10.0129 53.2118 8.96618C53.2118 7.91143 53.0266 7.11031 52.6562 6.5628ZM56.9732 13V6.07971H55.5722L56.2485 4.94444H58.2051V13H56.9732Z" fill="white"/>
<defs>
<linearGradient id="paint0_linear_1_100" x1="9.44304" y1="16.1855" x2="13.0576" y2="13.8256" gradientUnits="userSpaceOnUse">
<stop stop-color="#EA7438" stop-opacity="0"/>
<stop offset="1" stop-color="#EA8D38"/>
</linearGradient>
<linearGradient id="paint1_linear_1_100" x1="11.4564" y1="31.6712" x2="16.2541" y2="32.0174" gradientUnits="userSpaceOnUse">
<stop stop-color="#EAB838"/>
<stop offset="1" stop-color="#EA7438" stop-opacity="0"/>
</linearGradient>
</defs>
</svg>
