<svg width="21" height="20" viewBox="0 0 21 20" fill="none" xmlns="http://www.w3.org/2000/svg">
<g clip-path="url(#clip0_1_251)">
<path d="M19.016 11.636L17.881 11.4047C17.8567 11.3997 17.8311 11.4047 17.81 11.4182C17.789 11.432 17.7743 11.4539 17.7694 11.4782C17.658 12.0241 17.4839 12.5603 17.2512 13.0718C17.2231 13.1331 17.194 13.1953 17.1644 13.2561C16.2947 15.0396 14.7825 16.3776 12.9066 17.0232C12.1192 17.2946 11.3033 17.4318 10.4822 17.4318C9.35337 17.4318 8.26006 17.1772 7.23189 16.6758C5.56666 15.8637 4.28543 14.4909 3.60257 12.7938L5.15686 13.5517C5.17943 13.5627 5.20545 13.5644 5.2291 13.556C5.25275 13.5481 5.27232 13.5309 5.28328 13.5081L5.79113 12.467C5.81392 12.4199 5.79457 12.3634 5.74748 12.3402L2.31855 10.6681C2.27168 10.6455 2.21513 10.6646 2.19212 10.7113L0.865314 13.4135C0.862734 13.4184 0.860799 13.424 0.859294 13.4294L0.824893 13.4996L0.509692 14.1432C0.486686 14.1903 0.506037 14.2469 0.552909 14.2701L0.824893 14.4034L1.59311 14.7799C1.61547 14.7913 1.64171 14.7925 1.66536 14.7844C1.68901 14.7762 1.70857 14.7592 1.71975 14.7364L2.38778 13.3737C2.6718 14.0561 3.03753 14.6969 3.47701 15.281C4.31511 16.3956 5.37961 17.2724 6.64084 17.8876C7.70534 18.4066 8.84015 18.7018 10.0137 18.7648C10.171 18.7732 10.3308 18.7779 10.4877 18.7779C11.4585 18.7779 12.4196 18.6162 13.345 18.2976C14.4224 17.9267 15.4024 17.3608 16.2579 16.6149C17.1439 15.8431 17.8563 14.9117 18.3757 13.8472C18.4105 13.7753 18.445 13.7022 18.4778 13.6296C18.7524 13.026 18.9586 12.3928 19.0902 11.7474C19.1005 11.6962 19.0674 11.6461 19.016 11.636Z" fill="white"/>
<path d="M20.495 5.776C20.4871 5.75235 20.4699 5.73278 20.4471 5.7216L20.1755 5.58774L19.4082 5.20946C19.3856 5.19828 19.3598 5.19656 19.3359 5.20473C19.3121 5.2129 19.2927 5.2301 19.2813 5.25246L18.5963 6.64269C18.2314 5.7588 17.7279 4.94629 17.0984 4.22494C16.3271 3.34126 15.3972 2.63023 14.3347 2.11206C13.2702 1.59282 12.1353 1.29761 10.9616 1.23462C10.8042 1.22623 10.6447 1.22193 10.4877 1.22193C9.51699 1.22193 8.55569 1.3834 7.6303 1.70204C6.5529 2.07315 5.5729 2.63926 4.71738 3.38469C3.83155 4.15678 3.11902 5.08798 2.59978 6.15269C2.27619 6.81621 2.0371 7.51605 1.88939 8.23289C1.88445 8.2574 1.88918 8.28298 1.90294 8.30406C1.9167 8.32513 1.9382 8.33975 1.96293 8.34469L3.09752 8.57862C3.14869 8.58916 3.19879 8.55626 3.20932 8.50509C3.33446 7.89855 3.53678 7.30578 3.81113 6.74353C4.68083 4.96026 6.19319 3.62227 8.06913 2.97639C8.85649 2.70527 9.67223 2.56788 10.4938 2.56788C11.6221 2.56788 12.7157 2.82223 13.7436 3.32363C15.3875 4.12539 16.6617 5.48402 17.3538 7.16624L15.8408 6.43693C15.7935 6.41436 15.7371 6.43392 15.7144 6.48122L15.2112 7.52487C15.1887 7.57196 15.2084 7.6285 15.2555 7.65108L18.6827 9.30298C18.6963 9.30921 18.7101 9.31222 18.7238 9.31222C18.7586 9.31222 18.7922 9.29287 18.8087 9.25933L20.1755 6.48604L20.4897 5.84867C20.5015 5.82588 20.503 5.79987 20.495 5.776Z" fill="white"/>
<path fill-rule="evenodd" clip-rule="evenodd" d="M0.824893 14.4034V13.4996L0.859294 13.4294C0.860799 13.424 0.862734 13.4184 0.865314 13.4135L2.19212 10.7113C2.21513 10.6646 2.27168 10.6455 2.31855 10.6681L5.74748 12.3402C5.79457 12.3634 5.81392 12.4199 5.79113 12.467L5.28328 13.5081C5.27232 13.5309 5.25275 13.5481 5.2291 13.556C5.20545 13.5644 5.17943 13.5627 5.15686 13.5517L3.60257 12.7938C4.28543 14.4909 5.56666 15.8637 7.23189 16.6758C8.26006 17.1772 9.35337 17.4318 10.4822 17.4318C11.3033 17.4318 12.1192 17.2946 12.9066 17.0232C14.7825 16.3776 16.2947 15.0396 17.1644 13.2561C17.194 13.1953 17.2231 13.1331 17.2512 13.0718C17.4839 12.5603 17.658 12.0241 17.7694 11.4782C17.7743 11.4539 17.789 11.432 17.81 11.4182C17.8311 11.4047 17.8567 11.3997 17.881 11.4047L19.016 11.636C19.0674 11.6461 19.1005 11.6962 19.0902 11.7474C18.9586 12.3928 18.7524 13.026 18.4778 13.6296C18.445 13.7022 18.4105 13.7753 18.3757 13.8472C17.8563 14.9117 17.1439 15.8431 16.2579 16.6149C15.4024 17.3608 14.4224 17.9267 13.345 18.2976C12.4196 18.6162 11.4585 18.7779 10.4877 18.7779C10.3308 18.7779 10.171 18.7732 10.0137 18.7648C8.84015 18.7018 7.70534 18.4066 6.64084 17.8876C5.37961 17.2724 4.31511 16.3956 3.47701 15.281C3.03753 14.6969 2.6718 14.0561 2.38778 13.3737L1.71975 14.7364C1.70857 14.7592 1.68901 14.7762 1.66536 14.7844C1.64171 14.7925 1.61547 14.7913 1.59311 14.7799L0.824893 14.4034ZM20.1755 6.48604V5.58774L19.4082 5.20946C19.3856 5.19828 19.3598 5.19656 19.3359 5.20473C19.3121 5.2129 19.2927 5.2301 19.2813 5.25246L18.5963 6.64269C18.2314 5.7588 17.7279 4.94629 17.0984 4.22494C16.3271 3.34126 15.3972 2.63023 14.3347 2.11206C13.2702 1.59282 12.1353 1.29761 10.9616 1.23462C10.8042 1.22623 10.6447 1.22193 10.4877 1.22193C9.51699 1.22193 8.55569 1.3834 7.6303 1.70204C6.5529 2.07315 5.5729 2.63926 4.71738 3.38469C3.83155 4.15678 3.11902 5.08798 2.59978 6.15269C2.27619 6.81621 2.0371 7.51605 1.88939 8.23289C1.88445 8.2574 1.88918 8.28298 1.90294 8.30406C1.9167 8.32513 1.9382 8.33975 1.96293 8.34469L3.09752 8.57862C3.14869 8.58916 3.19879 8.55626 3.20932 8.50509C3.33446 7.89855 3.53678 7.30578 3.81113 6.74353C4.68083 4.96026 6.19319 3.62227 8.06913 2.97639C8.85649 2.70527 9.67223 2.56788 10.4938 2.56788C11.6221 2.56788 12.7157 2.82223 13.7436 3.32363C15.3875 4.12539 16.6617 5.48402 17.3538 7.16624L15.8408 6.43693C15.7935 6.41436 15.7371 6.43392 15.7144 6.48122L15.2112 7.52487C15.1887 7.57196 15.2084 7.6285 15.2555 7.65108L18.6827 9.30298C18.6963 9.30921 18.7101 9.31222 18.7238 9.31222C18.7586 9.31222 18.7922 9.29287 18.8087 9.25933L20.1755 6.48604Z" fill="white"/>
</g>
<defs>
<clipPath id="clip0_1_251">
<rect width="20" height="19.3507" fill="white" transform="translate(0.5 0.324707)"/>
</clipPath>
</defs>
</svg>
